<svg width="24" height="24" viewBox="0 0 24 24" fill="none" xmlns="http://www.w3.org/2000/svg">
<path d="M6.45796 12.0754C6.45796 11.4533 6.56252 10.8569 6.74787 10.2976L3.49234 7.83344C2.83748 9.15133 2.49776 10.6035 2.50001 12.0754C2.50001 13.5997 2.85646 15.0374 3.49045 16.314L6.74503 13.8456C6.55493 13.2749 6.45845 12.677 6.45796 12.0754Z" fill="#FBBC05"/>
<path d="M12.1768 6.41757C13.4739 6.41497 14.7321 6.86049 15.7389 7.67887L18.5539 4.89373C16.8387 3.4146 14.6396 2.5 12.1768 2.5C8.35289 2.5 5.06598 4.66734 3.49239 7.83345L6.7503 10.2976C7.50026 8.04035 9.63893 6.41712 12.1778 6.41712" fill="#EA4335"/>
<path d="M12.2181 17.6072C9.66598 17.6072 7.51686 15.9944 6.76214 13.7509L3.48997 16.2003C5.07118 19.3469 8.37424 21.5 12.2181 21.5C14.5892 21.5 16.8533 20.6753 18.5533 19.1286L15.4466 16.7753C14.5707 17.3161 13.4666 17.6076 12.2172 17.6076" fill="#34A853"/>
<path d="M21.5 11.985C21.5 11.4228 21.4111 10.8169 21.279 10.2548H12.2172V13.9312H17.4327C17.1728 15.1849 16.4632 16.1485 15.4471 16.7753L18.5534 19.1286C20.339 17.5054 21.5 15.0869 21.5 11.985Z" fill="#4285F4"/>
</svg>
